<svg xmlns="http://www.w3.org/2000/svg" width="1500" height="1500" viewBox="0 0 1500 1500" version="1.1"><path d="M 711.500 62.106 C 481.535 74.519, 272.774 197.302, 152.302 391 C 68.034 526.489, 34.457 686.948, 57.092 846 C 84.608 1039.354, 196.537 1213.449, 363.458 1322.521 C 586.468 1468.245, 877.098 1475.203, 1107.776 1340.340 C 1182.880 1296.432, 1252.636 1235.418, 1305.742 1167.185 C 1413.860 1028.267, 1463.977 855.092, 1446.441 681 C 1425.119 469.314, 1306.301 280.817, 1122 166.296 C 1001.028 91.127, 855.967 54.309, 711.500 62.106 M 708 86.138 C 525.267 96.798, 353.214 181.488, 233.912 319.500 C 158.343 406.920, 106.676 512.662, 85.130 624 C 46.524 823.486, 100.790 1026.462, 233.910 1180.500 C 323.337 1283.980, 443.724 1358.704, 576.224 1392.974 C 829.004 1458.353, 1096.263 1375.920, 1265.093 1180.500 C 1398.247 1026.375, 1452.481 823.514, 1413.870 624 C 1375.701 426.770, 1245.390 254.490, 1063.605 160.928 C 977.783 116.756, 886.221 91.845, 788.289 86.023 C 768.501 84.847, 729.165 84.903, 708 86.138 M 1030.500 450.491 C 976.600 451.208, 926.396 451.841, 918.936 451.897 L 905.371 452 905.802 496.750 C 906.039 521.362, 906.293 541.529, 906.366 541.565 C 906.440 541.600, 933.275 541.300, 966 540.898 C 1074.536 539.562, 1107.707 539.693, 1114.500 541.483 C 1128.112 545.069, 1140.269 554.534, 1145.520 565.634 C 1148.777 572.519, 1149.753 582.820, 1148.073 592.583 C 1145.609 606.908, 1139.458 615.205, 1126.619 621.524 C 1114.399 627.538, 1112.003 627.734, 1043.120 628.360 C 1008.811 628.672, 980.622 629.056, 980.479 629.213 C 980.335 629.371, 980.460 647.660, 980.757 669.856 L 981.296 710.212 1047.898 709.856 L 1114.500 709.500 1121.941 712.215 C 1141.277 719.271, 1151 733.174, 1151 753.766 C 1151 772.772, 1137.772 788.626, 1116.869 794.671 C 1111.362 796.264, 1105.324 796.408, 952.273 798.612 L 909.046 799.235 909.662 843.867 C 910 868.415, 910.327 888.533, 910.389 888.573 C 910.450 888.613, 966.975 888.059, 1036 887.342 C 1168.879 885.962, 1176.040 885.668, 1190.009 881.027 C 1228.529 868.231, 1256.898 833.811, 1266.684 788 C 1269.274 775.877, 1269.273 738.436, 1266.683 725.626 C 1262.903 706.929, 1256.038 690.079, 1246.900 677.066 C 1238.855 665.611, 1238.994 667.551, 1245.537 657.977 C 1256.436 642.027, 1262.458 626.043, 1265.576 604.786 C 1267.672 590.493, 1267.090 558.535, 1264.524 547 C 1255.427 506.104, 1232.466 475.454, 1198.566 458.957 C 1182.952 451.359, 1175.531 449.917, 1150 449.520 C 1138.175 449.337, 1084.400 449.773, 1030.500 450.491 M 745.824 453.748 L 727.149 454.044 725.571 458.272 C 724.704 460.597, 704.237 519.200, 680.089 588.500 C 644.026 691.992, 635.848 714.552, 634.303 714.792 C 632.669 715.046, 626.185 698.273, 584.625 586.292 C 558.335 515.456, 536.505 457.162, 536.113 456.750 C 535.721 456.337, 507.928 456.337, 474.351 456.750 L 413.303 457.500 434.156 511.283 L 455.008 565.067 427.105 641.283 C 403.986 704.433, 398.888 717.500, 397.366 717.500 C 395.844 717.500, 387.368 695.702, 347.786 590 C 321.527 519.875, 299.754 461.642, 299.403 460.592 C 298.781 458.733, 297.231 458.702, 238.165 459.393 C 204.835 459.782, 177.377 460.290, 177.147 460.520 C 176.916 460.750, 213.347 558.593, 258.105 677.948 L 339.482 894.956 397.991 894.351 C 430.171 894.018, 456.760 893.465, 457.079 893.122 C 457.397 892.780, 470.419 857.063, 486.016 813.750 C 507.752 753.391, 514.754 735, 515.999 735 C 517.226 735, 525.035 754.182, 547.955 813.500 L 578.288 892 608.394 891.861 C 624.952 891.785, 651.476 891.447, 667.336 891.111 L 696.173 890.500 772.095 673.500 C 813.852 554.150, 848.269 455.712, 848.576 454.750 C 849.103 453.100, 846.724 453.013, 806.817 453.227 C 783.543 453.351, 756.096 453.586, 745.824 453.748 M 383 990.840 L 383 1057 437.500 1057 L 492 1057 492 1045 L 492 1033 456.082 1033 C 436.327 1033, 419.452 1032.727, 418.582 1032.393 C 417.176 1031.854, 417 1027.365, 417 992.093 C 417 962.554, 417.307 952.093, 418.200 951.200 C 419.089 950.311, 428.800 950, 455.700 950 L 492 950 492 938 L 492 926 460.750 925.998 C 443.563 925.996, 419.038 925.700, 406.250 925.338 L 383 924.681 383 990.840 M 514 990.974 L 514 1057 530.986 1057 L 547.972 1057 548.236 1024.763 C 548.472 995.980, 548.673 992.493, 550.119 992.215 C 551.250 991.998, 558.733 1001.705, 574.930 1024.402 L 598.122 1056.901 612.931 1057.201 L 627.739 1057.500 628.370 1048.596 C 628.716 1043.699, 629 1014.112, 629 982.846 L 629 926 612.014 926 L 595.028 926 594.764 958.250 C 594.509 989.443, 594.436 990.500, 592.554 990.500 C 591.141 990.500, 584.283 981.608, 567.486 958 L 544.364 925.500 529.182 925.224 L 514 924.948 514 990.974 M 650 991.840 L 650 1058 704.500 1058 L 759 1058 759 1046 L 759 1034 723.082 1034 C 703.327 1034, 686.452 1033.727, 685.582 1033.393 C 684.176 1032.854, 684 1028.365, 684 993.093 C 684 963.554, 684.307 953.093, 685.200 952.200 C 686.089 951.311, 695.800 951, 722.700 951 L 759 951 759 939 L 759 927 727.750 926.998 C 710.563 926.996, 686.038 926.700, 673.250 926.338 L 650 925.681 650 991.840 M 781 991.981 L 781 1058 798 1058 L 815 1058 815 1005.622 C 815 960.649, 815.209 953.072, 816.477 952.019 C 817.550 951.128, 822.400 950.890, 834.227 951.147 C 849.228 951.472, 850.795 951.683, 854.274 953.847 C 856.350 955.137, 858.713 957.477, 859.524 959.047 C 861.664 963.185, 861.397 970.836, 858.974 974.810 C 856.051 979.604, 851.781 981, 840.032 981 L 830 981 830 991.870 L 830 1002.740 834.534 1003.251 C 840.413 1003.914, 848.888 1009.511, 853.470 1015.757 C 858.738 1022.939, 862.980 1037.685, 863.014 1048.934 C 863.042 1058.488, 862.141 1058, 879.767 1058 L 895.301 1058 894.622 1046.819 C 893.371 1026.221, 889.236 1012.695, 881.612 1004.255 C 879.625 1002.057, 878 999.846, 878 999.342 C 878 998.839, 880.212 996.775, 882.916 994.757 C 886.561 992.035, 888.694 989.336, 891.166 984.314 C 894.384 977.777, 894.500 977.124, 894.500 965.521 C 894.500 954.001, 894.365 953.225, 891.267 946.893 C 887.470 939.134, 881.061 932.804, 873.675 929.520 C 868.611 927.268, 867.558 927.205, 824.750 926.590 L 781 925.961 781 991.981 M 963.124 929.578 C 953.429 932.185, 944.053 937.838, 935.974 945.946 C 905.134 976.898, 912.978 1032.451, 951.011 1052.436 C 962.069 1058.247, 966.809 1058.886, 1001.251 1059.211 L 1032.001 1059.500 1032.001 1028.901 C 1032 1012.071, 1032.291 994.859, 1032.647 990.651 L 1033.293 983 1006.647 983 L 980 983 980 993.500 L 980 1004 988.429 1004 C 1000.413 1004, 1000.390 1003.966, 999.483 1020.423 C 999.050 1028.284, 998.311 1033.793, 997.631 1034.235 C 994.275 1036.414, 980.769 1033.683, 973.160 1029.286 C 965.912 1025.098, 955.379 1014.050, 952.235 1007.339 C 949.927 1002.410, 949.500 1000.175, 949.502 993 C 949.504 985.230, 949.796 983.960, 952.908 978.219 C 957.256 970.195, 966.845 961.187, 975.660 956.844 L 982.449 953.500 1007.724 953.188 L 1033 952.875 1033 940.438 L 1033 928 1000.750 928.066 C 975.932 928.116, 967.261 928.465, 963.124 929.578 M 1053.642 929.250 C 1054.060 929.938, 1064.662 946.174, 1077.201 965.331 L 1100 1000.162 1100 1030.081 L 1100 1060 1117 1060 L 1134 1060 1134 1030.168 L 1134 1000.335 1157.500 965.211 C 1170.425 945.893, 1181 929.843, 1181 929.544 C 1181 929.245, 1172.676 929, 1162.503 929 L 1144.006 929 1131.344 948 C 1123.720 959.441, 1118.049 966.997, 1117.091 966.993 C 1116.130 966.989, 1110.641 959.520, 1103.227 948.130 L 1090.955 929.273 1085.727 928.645 C 1082.852 928.300, 1074.286 928.013, 1066.691 928.009 C 1055.903 928.002, 1053.048 928.273, 1053.642 929.250 M 432 991.500 L 432 1002 458.500 1002 L 485 1002 485 991.500 L 485 981 458.500 981 L 432 981 432 991.500 M 699 992.500 L 699 1003 725.500 1003 L 752 1003 752 992.500 L 752 982 725.500 982 L 699 982 699 992.500" stroke="none" fill="#fafafa" fill-rule="evenodd"/><path d="M 698.500 31.091 C 517.853 43.158, 350.688 118.521, 224.023 245 C 109.689 359.165, 37.524 507.065, 18.601 666 C 15.024 696.051, 14.500 706.971, 14.528 751 C 14.565 807.412, 17.096 835.653, 26.495 884.500 C 68.463 1102.608, 211.681 1290.424, 413 1391.361 C 504.069 1437.021, 597.087 1462.133, 700.500 1468.976 C 720.279 1470.285, 772.250 1470.268, 793 1468.945 C 1009.685 1455.133, 1206.674 1349.511, 1336.108 1177.741 C 1413.797 1074.641, 1461.961 952.688, 1475.420 825 C 1480.367 778.066, 1480.367 721.934, 1475.420 675 C 1454.545 476.946, 1350.893 296.481, 1188.500 175.451 C 1074.108 90.196, 937.318 40.254, 793 31.055 C 774.287 29.862, 716.566 29.884, 698.500 31.091 M 711.500 62.106 C 481.535 74.519, 272.774 197.302, 152.302 391 C 68.034 526.489, 34.457 686.948, 57.092 846 C 84.608 1039.354, 196.537 1213.449, 363.458 1322.521 C 586.468 1468.245, 877.098 1475.203, 1107.776 1340.340 C 1182.880 1296.432, 1252.636 1235.418, 1305.742 1167.185 C 1413.860 1028.267, 1463.977 855.092, 1446.441 681 C 1425.119 469.314, 1306.301 280.817, 1122 166.296 C 1001.028 91.127, 855.967 54.309, 711.500 62.106 M 708 86.138 C 525.267 96.798, 353.214 181.488, 233.912 319.500 C 158.343 406.920, 106.676 512.662, 85.130 624 C 46.524 823.486, 100.790 1026.462, 233.910 1180.500 C 323.337 1283.980, 443.724 1358.704, 576.224 1392.974 C 829.004 1458.353, 1096.263 1375.920, 1265.093 1180.500 C 1398.247 1026.375, 1452.481 823.514, 1413.870 624 C 1375.701 426.770, 1245.390 254.490, 1063.605 160.928 C 977.783 116.756, 886.221 91.845, 788.289 86.023 C 768.501 84.847, 729.165 84.903, 708 86.138 M 1030.500 450.491 C 976.600 451.208, 926.396 451.841, 918.936 451.897 L 905.371 452 905.802 496.750 C 906.039 521.362, 906.293 541.529, 906.366 541.565 C 906.440 541.600, 933.275 541.300, 966 540.898 C 1074.536 539.562, 1107.707 539.693, 1114.500 541.483 C 1128.112 545.069, 1140.269 554.534, 1145.520 565.634 C 1148.777 572.519, 1149.753 582.820, 1148.073 592.583 C 1145.609 606.908, 1139.458 615.205, 1126.619 621.524 C 1114.399 627.538, 1112.003 627.734, 1043.120 628.360 C 1008.811 628.672, 980.622 629.056, 980.479 629.213 C 980.335 629.371, 980.460 647.660, 980.757 669.856 L 981.296 710.212 1047.898 709.856 L 1114.500 709.500 1121.941 712.215 C 1141.277 719.271, 1151 733.174, 1151 753.766 C 1151 772.772, 1137.772 788.626, 1116.869 794.671 C 1111.362 796.264, 1105.324 796.408, 952.273 798.612 L 909.046 799.235 909.662 843.867 C 910 868.415, 910.327 888.533, 910.389 888.573 C 910.450 888.613, 966.975 888.059, 1036 887.342 C 1168.879 885.962, 1176.040 885.668, 1190.009 881.027 C 1228.529 868.231, 1256.898 833.811, 1266.684 788 C 1269.274 775.877, 1269.273 738.436, 1266.683 725.626 C 1262.903 706.929, 1256.038 690.079, 1246.900 677.066 C 1238.855 665.611, 1238.994 667.551, 1245.537 657.977 C 1256.436 642.027, 1262.458 626.043, 1265.576 604.786 C 1267.672 590.493, 1267.090 558.535, 1264.524 547 C 1255.427 506.104, 1232.466 475.454, 1198.566 458.957 C 1182.952 451.359, 1175.531 449.917, 1150 449.520 C 1138.175 449.337, 1084.400 449.773, 1030.500 450.491 M 745.824 453.748 L 727.149 454.044 725.571 458.272 C 724.704 460.597, 704.237 519.200, 680.089 588.500 C 644.026 691.992, 635.848 714.552, 634.303 714.792 C 632.669 715.046, 626.185 698.273, 584.625 586.292 C 558.335 515.456, 536.505 457.162, 536.113 456.750 C 535.721 456.337, 507.928 456.337, 474.351 456.750 L 413.303 457.500 434.156 511.283 L 455.008 565.067 427.105 641.283 C 403.986 704.433, 398.888 717.500, 397.366 717.500 C 395.844 717.500, 387.368 695.702, 347.786 590 C 321.527 519.875, 299.754 461.642, 299.403 460.592 C 298.781 458.733, 297.231 458.702, 238.165 459.393 C 204.835 459.782, 177.377 460.290, 177.147 460.520 C 176.916 460.750, 213.347 558.593, 258.105 677.948 L 339.482 894.956 397.991 894.351 C 430.171 894.018, 456.760 893.465, 457.079 893.122 C 457.397 892.780, 470.419 857.063, 486.016 813.750 C 507.752 753.391, 514.754 735, 515.999 735 C 517.226 735, 525.035 754.182, 547.955 813.500 L 578.288 892 608.394 891.861 C 624.952 891.785, 651.476 891.447, 667.336 891.111 L 696.173 890.500 772.095 673.500 C 813.852 554.150, 848.269 455.712, 848.576 454.750 C 849.103 453.100, 846.724 453.013, 806.817 453.227 C 783.543 453.351, 756.096 453.586, 745.824 453.748 M 383 990.840 L 383 1057 437.500 1057 L 492 1057 492 1045 L 492 1033 456.082 1033 C 436.327 1033, 419.452 1032.727, 418.582 1032.393 C 417.176 1031.854, 417 1027.365, 417 992.093 C 417 962.554, 417.307 952.093, 418.200 951.200 C 419.089 950.311, 428.800 950, 455.700 950 L 492 950 492 938 L 492 926 460.750 925.998 C 443.563 925.996, 419.038 925.700, 406.250 925.338 L 383 924.681 383 990.840 M 514 990.974 L 514 1057 530.986 1057 L 547.972 1057 548.236 1024.763 C 548.472 995.980, 548.673 992.493, 550.119 992.215 C 551.250 991.998, 558.733 1001.705, 574.930 1024.402 L 598.122 1056.901 612.931 1057.201 L 627.739 1057.500 628.370 1048.596 C 628.716 1043.699, 629 1014.112, 629 982.846 L 629 926 612.014 926 L 595.028 926 594.764 958.250 C 594.509 989.443, 594.436 990.500, 592.554 990.500 C 591.141 990.500, 584.283 981.608, 567.486 958 L 544.364 925.500 529.182 925.224 L 514 924.948 514 990.974 M 650 991.840 L 650 1058 704.500 1058 L 759 1058 759 1046 L 759 1034 723.082 1034 C 703.327 1034, 686.452 1033.727, 685.582 1033.393 C 684.176 1032.854, 684 1028.365, 684 993.093 C 684 963.554, 684.307 953.093, 685.200 952.200 C 686.089 951.311, 695.800 951, 722.700 951 L 759 951 759 939 L 759 927 727.750 926.998 C 710.563 926.996, 686.038 926.700, 673.250 926.338 L 650 925.681 650 991.840 M 781 991.981 L 781 1058 798 1058 L 815 1058 815 1005.622 C 815 960.649, 815.209 953.072, 816.477 952.019 C 817.550 951.128, 822.400 950.890, 834.227 951.147 C 849.228 951.472, 850.795 951.683, 854.274 953.847 C 856.350 955.137, 858.713 957.477, 859.524 959.047 C 861.664 963.185, 861.397 970.836, 858.974 974.810 C 856.051 979.604, 851.781 981, 840.032 981 L 830 981 830 991.870 L 830 1002.740 834.534 1003.251 C 840.413 1003.914, 848.888 1009.511, 853.470 1015.757 C 858.738 1022.939, 862.980 1037.685, 863.014 1048.934 C 863.042 1058.488, 862.141 1058, 879.767 1058 L 895.301 1058 894.622 1046.819 C 893.371 1026.221, 889.236 1012.695, 881.612 1004.255 C 879.625 1002.057, 878 999.846, 878 999.342 C 878 998.839, 880.212 996.775, 882.916 994.757 C 886.561 992.035, 888.694 989.336, 891.166 984.314 C 894.384 977.777, 894.500 977.124, 894.500 965.521 C 894.500 954.001, 894.365 953.225, 891.267 946.893 C 887.470 939.134, 881.061 932.804, 873.675 929.520 C 868.611 927.268, 867.558 927.205, 824.750 926.590 L 781 925.961 781 991.981 M 963.124 929.578 C 953.429 932.185, 944.053 937.838, 935.974 945.946 C 905.134 976.898, 912.978 1032.451, 951.011 1052.436 C 962.069 1058.247, 966.809 1058.886, 1001.251 1059.211 L 1032.001 1059.500 1032.001 1028.901 C 1032 1012.071, 1032.291 994.859, 1032.647 990.651 L 1033.293 983 1006.647 983 L 980 983 980 993.500 L 980 1004 988.429 1004 C 1000.413 1004, 1000.390 1003.966, 999.483 1020.423 C 999.050 1028.284, 998.311 1033.793, 997.631 1034.235 C 994.275 1036.414, 980.769 1033.683, 973.160 1029.286 C 965.912 1025.098, 955.379 1014.050, 952.235 1007.339 C 949.927 1002.410, 949.500 1000.175, 949.502 993 C 949.504 985.230, 949.796 983.960, 952.908 978.219 C 957.256 970.195, 966.845 961.187, 975.660 956.844 L 982.449 953.500 1007.724 953.188 L 1033 952.875 1033 940.438 L 1033 928 1000.750 928.066 C 975.932 928.116, 967.261 928.465, 963.124 929.578 M 1053.642 929.250 C 1054.060 929.938, 1064.662 946.174, 1077.201 965.331 L 1100 1000.162 1100 1030.081 L 1100 1060 1117 1060 L 1134 1060 1134 1030.168 L 1134 1000.335 1157.500 965.211 C 1170.425 945.893, 1181 929.843, 1181 929.544 C 1181 929.245, 1172.676 929, 1162.503 929 L 1144.006 929 1131.344 948 C 1123.720 959.441, 1118.049 966.997, 1117.091 966.993 C 1116.130 966.989, 1110.641 959.520, 1103.227 948.130 L 1090.955 929.273 1085.727 928.645 C 1082.852 928.300, 1074.286 928.013, 1066.691 928.009 C 1055.903 928.002, 1053.048 928.273, 1053.642 929.250 M 432 991.500 L 432 1002 458.500 1002 L 485 1002 485 991.500 L 485 981 458.500 981 L 432 981 432 991.500 M 699 992.500 L 699 1003 725.500 1003 L 752 1003 752 992.500 L 752 982 725.500 982 L 699 982 699 992.500" stroke="none" fill="#144a3a" fill-rule="evenodd"/></svg>
